# xmcd CD database file
#
# Track frame offsets:
#	150
#	42390
#	58426
#	80600
#	103199
#	128595
#	151240
#	179680
#	197230
#
# Disc length: 2832 seconds
#
# Revision: 3
# Processed by: cddbd v1.5.1PL0 Copyright (c) Steve Scherf et al.
# Submitted via: CDex 1.51
#
DISCID=810b0e09
DTITLE=RCサクセション - RHAPSODY
DYEAR=1980
DGENRE=Japanese Rock
TTITLE0=よォーこそ
TTITLE1=エネルギーohエネルギー
TTITLE2=ラプソディー
TTITLE3=ボスしけてるぜ
TTITLE4=エンジェル
TTITLE5=ブン・ブン・ブン
TTITLE6=雨あがりの夜空に
TTITLE7=上を向いて歩こう
TTITLE8=キモちE
EXTD=YEAR: 1980
EXTT0=
EXTT1=
EXTT2=
EXTT3=
EXTT4=
EXTT5=
EXTT6=
EXTT7=
EXTT8=
PLAYORDER=
